REM DIRINDEX 1\2,1\3
REM DIRNAME cjc052,folder01,folder02
TITLE ""
FILE "Disk1Track13.mp3" MP3
  TRACK 01 AUDIO
    TITLE "2:cjc052_0068"
    INDEX 01 00:00:00
  TRACK 02 AUDIO
    TITLE "2:cjc052_0069"
    INDEX 01 00:25:25
  TRACK 03 AUDIO
    TITLE "2:cjc052_0070"
    INDEX 01 00:33:13
  TRACK 04 AUDIO
    TITLE "2:cjc052_0071"
    INDEX 01 01:11:15
  TRACK 05 AUDIO
    TITLE "0:"
    INDEX 01 01:20:44
